<?xml version="1.0" encoding="utf-8"?>
<!-- Generator: Adobe Illustrator 26.3.1, SVG Export Plug-In . SVG Version: 6.00 Build 0)  -->
<svg version="1.1" id="Layer_1" xmlns="http://www.w3.org/2000/svg" xmlns:xlink="http://www.w3.org/1999/xlink" x="0px" y="0px"
	 viewBox="0 0 40 41" style="enable-background:new 0 0 40 41;" xml:space="preserve">
<style type="text/css">

	.st0{fill:#FFFFFF;}
	.st1{fill:none;stroke:#4A3730;stroke-width:2;stroke-linecap:round;stroke-linejoin:round;}
	.st2{fill:#4A3730;}
</style>
<path class="st0" d="M3.1,20.5c0-9.3,7.6-16.9,16.9-16.9c9.3,0,16.9,7.6,16.9,16.9c0,9.3-7.6,16.9-16.9,16.9
	C10.7,37.4,3.1,29.8,3.1,20.5z"/>
<path class="st1" d="M14.1,20.5h11.8"/>
<path class="st1" d="M20,14.6l5.9,5.9L20,26.4"/>
<path class="st2" d="M20,35.7c-8.4,0-15.2-6.8-15.2-15.2H1.4c0,10.3,8.3,18.6,18.6,18.6V35.7z M35.2,20.5c0,8.4-6.8,15.2-15.2,15.2
	v3.4c10.3,0,18.6-8.3,18.6-18.6H35.2z M20,5.3c8.4,0,15.2,6.8,15.2,15.2h3.4c0-10.3-8.3-18.6-18.6-18.6V5.3z M20,1.9
	C9.7,1.9,1.4,10.2,1.4,20.5h3.4c0-8.4,6.8-15.2,15.2-15.2V1.9z"/>
</svg>
