<svg width="31" height="31" viewBox="0 0 31 31" fill="none" xmlns="http://www.w3.org/2000/svg">
<path d="M28 9.51465C28 6.06287 25.2018 3.26465 21.75 3.26465H15.5H9.25C5.79822 3.26465 3 6.06287 3 9.51465V22.0146C3 25.4664 5.79822 28.2646 9.25 28.2646H21.75C25.2018 28.2646 28 25.4664 28 22.0146V9.51465Z" stroke="#4A3730" stroke-width="2" stroke-linecap="round" stroke-linejoin="round"/>
<path d="M19.9923 18.0133C20.4767 17.0798 20.6544 16.0173 20.5001 14.977C20.3428 13.9159 19.8483 12.9335 19.0897 12.1749C18.3312 11.4164 17.3488 10.9219 16.2876 10.7645C15.2473 10.6103 14.1849 10.788 13.2514 11.2723C12.3179 11.7567 11.5609 12.5231 11.088 13.4625C10.6152 14.4019 10.4506 15.4665 10.6177 16.5048C10.7848 17.5431 11.275 18.5023 12.0187 19.246C12.7623 19.9896 13.7215 20.4799 14.7599 20.647C15.7982 20.814 16.8628 20.6495 17.8022 20.1766C18.7416 19.7038 19.5079 18.9468 19.9923 18.0133Z" stroke="#4A3730" stroke-width="2" stroke-linecap="round" stroke-linejoin="round"/>
<path d="M22.375 8.88965H22.3875" stroke="#4A3730" stroke-width="2" stroke-linecap="round" stroke-linejoin="round"/>
</svg>
