<svg width="30" height="31" viewBox="0 0 30 31" fill="none" xmlns="http://www.w3.org/2000/svg">
<path d="M27.5 25.6106V21.8606C27.5152 21.2475 27.3046 20.6503 26.9082 20.1824C26.5118 19.7146 25.9572 19.4087 25.35 19.3231C24.15 19.1648 22.9716 18.8713 21.8375 18.4481C21.3901 18.2799 20.9039 18.2435 20.4364 18.3432C19.969 18.4429 19.5399 18.6745 19.2 19.0106L17.6125 20.5981C14.4831 18.8186 11.892 16.2275 10.1125 13.0981L11.7 11.5106C12.0361 11.1707 12.2677 10.7416 12.3674 10.2742C12.4671 9.80671 12.4307 9.32047 12.2625 8.87307C11.8393 7.73898 11.5458 6.56065 11.3875 5.36057C11.3026 4.75988 11.0022 4.21055 10.5422 3.81499C10.0823 3.41942 9.49417 3.2046 8.88754 3.21057H5.13754C4.79046 3.2109 4.44726 3.28349 4.12978 3.42372C3.81229 3.56396 3.52749 3.76876 3.2935 4.0251C3.0595 4.28143 2.88145 4.58368 2.77066 4.9126C2.65988 5.24152 2.6188 5.5899 2.65004 5.93557C3.06034 9.79931 4.37501 13.5121 6.48754 16.7731C8.40671 19.7933 10.9673 22.3539 13.9875 24.2731C17.2338 26.3783 20.9286 27.6926 24.775 28.1106C25.1218 28.1419 25.4712 28.1005 25.801 27.989C26.1308 27.8774 26.4336 27.6982 26.6901 27.4629C26.9467 27.2276 27.1512 26.9412 27.2907 26.6223C27.4301 26.3033 27.5014 25.9587 27.5 25.6106Z" stroke="#4A3730" stroke-width="2" stroke-linecap="round" stroke-linejoin="round"/>
</svg>
