<svg width="31" height="31" viewBox="0 0 31 31" fill="none" xmlns="http://www.w3.org/2000/svg">
<g clip-path="url(#clip0_429_2290)">
<path d="M25.325 6.37307C26.7276 5.9507 28.053 5.30491 29.25 4.46057C28.826 6.20146 27.9258 7.78993 26.65 9.04807C26.7154 9.39006 26.7488 9.73738 26.75 10.0856C26.75 24.4606 13 30.7106 1.75 24.4606C4.85895 24.5842 7.92566 23.708 10.5 21.9606C-0.75 16.9606 4.25 5.71057 4.25 5.71057C5.5129 7.50886 7.20093 8.96692 9.16376 9.95488C11.1266 10.9428 13.3033 11.43 15.5 11.3731V10.1231C15.4846 8.97599 15.8219 7.85186 16.4662 6.90271C17.1106 5.95357 18.0308 5.22521 19.1026 4.81613C20.1744 4.40706 21.3459 4.33702 22.4588 4.61548C23.5717 4.89393 24.5722 5.50746 25.325 6.37307Z" stroke="#4A3730" stroke-width="2" stroke-linecap="round" stroke-linejoin="round"/>
</g>
<defs>
<clipPath id="clip0_429_2290">
<rect width="30" height="30" fill="white" transform="translate(0.5 0.710449)"/>
</clipPath>
</defs>
</svg>
